<mxfile host="65bd71144e">
    <diagram id="hRp2A1M-C7uJX_9TAyZk" name="Page-1">
        <mxGraphModel dx="629" dy="556" grid="1" gridSize="10" guides="1" tooltips="1" connect="1" arrows="1" fold="1" page="1" pageScale="1" pageWidth="850" pageHeight="1100" math="0" shadow="0">
            <root>
                <mxCell id="0"/>
                <mxCell id="1" parent="0"/>
                <mxCell id="19" value="" style="edgeStyle=none;html=1;" parent="1" source="14" target="9" edge="1">
                    <mxGeometry relative="1" as="geometry"/>
                </mxCell>
                <mxCell id="6" value="Agencia" style="swimlane;fontStyle=1;align=center;verticalAlign=top;childLayout=stackLayout;horizontal=1;startSize=26;horizontalStack=0;resizeParent=1;resizeParentMax=0;resizeLast=0;collapsible=1;marginBottom=0;fillColor=#3399FF;" parent="1" vertex="1">
                    <mxGeometry x="160" y="600" width="160" height="212" as="geometry"/>
                </mxCell>
                <mxCell id="33" value="+ id: number&#10;+ number: number&#10;+ addrress: string" style="text;strokeColor=none;fillColor=none;align=left;verticalAlign=top;spacingLeft=4;spacingRight=4;overflow=hidden;rotatable=0;points=[[0,0.5],[1,0.5]];portConstraint=eastwest;" parent="6" vertex="1">
                    <mxGeometry y="26" width="160" height="64" as="geometry"/>
                </mxCell>
                <mxCell id="7" value="+ id: number&#10;+ number: number&#10;+ addrress: string" style="text;strokeColor=none;fillColor=none;align=left;verticalAlign=top;spacingLeft=4;spacingRight=4;overflow=hidden;rotatable=0;points=[[0,0.5],[1,0.5]];portConstraint=eastwest;" parent="6" vertex="1">
                    <mxGeometry y="90" width="160" height="64" as="geometry"/>
                </mxCell>
                <mxCell id="8" value="" style="line;strokeWidth=1;fillColor=none;align=left;verticalAlign=middle;spacingTop=-1;spacingLeft=3;spacingRight=3;rotatable=0;labelPosition=right;points=[];portConstraint=eastwest;" parent="6" vertex="1">
                    <mxGeometry y="154" width="160" height="8" as="geometry"/>
                </mxCell>
                <mxCell id="9" value="- aprovarCadastroCliente()&#10;- aprovarEmprestimoCliente()" style="text;strokeColor=none;fillColor=none;align=left;verticalAlign=top;spacingLeft=4;spacingRight=4;overflow=hidden;rotatable=0;points=[[0,0.5],[1,0.5]];portConstraint=eastwest;" parent="6" vertex="1">
                    <mxGeometry y="162" width="160" height="50" as="geometry"/>
                </mxCell>
                <mxCell id="10" value="Cliente" style="swimlane;fontStyle=1;align=center;verticalAlign=top;childLayout=stackLayout;horizontal=1;startSize=26;horizontalStack=0;resizeParent=1;resizeParentMax=0;resizeLast=0;collapsible=1;marginBottom=0;fillColor=#3399FF;" parent="1" vertex="1">
                    <mxGeometry x="440" y="600" width="160" height="190" as="geometry"/>
                </mxCell>
                <mxCell id="11" value="+ id: number&#10;+ name: string&#10;+ email: string&#10;+ password: string&#10;+ cpf: string&#10;+ addrress: string" style="text;strokeColor=none;fillColor=none;align=left;verticalAlign=top;spacingLeft=4;spacingRight=4;overflow=hidden;rotatable=0;points=[[0,0.5],[1,0.5]];portConstraint=eastwest;" parent="10" vertex="1">
                    <mxGeometry y="26" width="160" height="94" as="geometry"/>
                </mxCell>
                <mxCell id="12" value="" style="line;strokeWidth=1;fillColor=none;align=left;verticalAlign=middle;spacingTop=-1;spacingLeft=3;spacingRight=3;rotatable=0;labelPosition=right;points=[];portConstraint=eastwest;" parent="10" vertex="1">
                    <mxGeometry y="120" width="160" height="8" as="geometry"/>
                </mxCell>
                <mxCell id="13" value="- solicitarCartao()&#10;- realizarPagamento()&#10;- realizarTransferencia()" style="text;strokeColor=none;fillColor=none;align=left;verticalAlign=top;spacingLeft=4;spacingRight=4;overflow=hidden;rotatable=0;points=[[0,0.5],[1,0.5]];portConstraint=eastwest;" parent="10" vertex="1">
                    <mxGeometry y="128" width="160" height="62" as="geometry"/>
                </mxCell>
                <mxCell id="14" value="Conta" style="swimlane;fontStyle=1;align=center;verticalAlign=top;childLayout=stackLayout;horizontal=1;startSize=26;horizontalStack=0;resizeParent=1;resizeParentMax=0;resizeLast=0;collapsible=1;marginBottom=0;fillColor=#3399FF;" parent="1" vertex="1">
                    <mxGeometry x="450" y="880" width="160" height="150" as="geometry"/>
                </mxCell>
                <mxCell id="15" value="+ id: number&#10;+ balance: float&#10;+ number: number&#10;+ agencia: Agencia" style="text;strokeColor=none;fillColor=none;align=left;verticalAlign=top;spacingLeft=4;spacingRight=4;overflow=hidden;rotatable=0;points=[[0,0.5],[1,0.5]];portConstraint=eastwest;" parent="14" vertex="1">
                    <mxGeometry y="26" width="160" height="64" as="geometry"/>
                </mxCell>
                <mxCell id="16" value="" style="line;strokeWidth=1;fillColor=none;align=left;verticalAlign=middle;spacingTop=-1;spacingLeft=3;spacingRight=3;rotatable=0;labelPosition=right;points=[];portConstraint=eastwest;" parent="14" vertex="1">
                    <mxGeometry y="90" width="160" height="8" as="geometry"/>
                </mxCell>
                <mxCell id="17" value="- aprovarCadastroCliente()&#10;- aprovarEmprestimoCliente()" style="text;strokeColor=none;fillColor=none;align=left;verticalAlign=top;spacingLeft=4;spacingRight=4;overflow=hidden;rotatable=0;points=[[0,0.5],[1,0.5]];portConstraint=eastwest;" parent="14" vertex="1">
                    <mxGeometry y="98" width="160" height="52" as="geometry"/>
                </mxCell>
                <mxCell id="28" style="edgeStyle=none;html=1;entryX=0.512;entryY=1.024;entryDx=0;entryDy=0;entryPerimeter=0;" parent="1" source="20" target="13" edge="1">
                    <mxGeometry relative="1" as="geometry"/>
                </mxCell>
                <mxCell id="20" value="Emprestimo" style="swimlane;fontStyle=1;align=center;verticalAlign=top;childLayout=stackLayout;horizontal=1;startSize=26;horizontalStack=0;resizeParent=1;resizeParentMax=0;resizeLast=0;collapsible=1;marginBottom=0;fillColor=#3399FF;" parent="1" vertex="1">
                    <mxGeometry x="140" y="840" width="160" height="190" as="geometry"/>
                </mxCell>
                <mxCell id="21" value="+ id: number&#10;+ purpose: string&#10;+ details: string&#10;+ accountId: number&#10;+ status: boolean&#10;+ cliente: Cliente&#10;" style="text;strokeColor=none;fillColor=none;align=left;verticalAlign=top;spacingLeft=4;spacingRight=4;overflow=hidden;rotatable=0;points=[[0,0.5],[1,0.5]];portConstraint=eastwest;" parent="20" vertex="1">
                    <mxGeometry y="26" width="160" height="104" as="geometry"/>
                </mxCell>
                <mxCell id="22" value="" style="line;strokeWidth=1;fillColor=none;align=left;verticalAlign=middle;spacingTop=-1;spacingLeft=3;spacingRight=3;rotatable=0;labelPosition=right;points=[];portConstraint=eastwest;" parent="20" vertex="1">
                    <mxGeometry y="130" width="160" height="8" as="geometry"/>
                </mxCell>
                <mxCell id="23" value="- deposit()&#10;- withdraw()&#10;-Â  transfer()" style="text;strokeColor=none;fillColor=none;align=left;verticalAlign=top;spacingLeft=4;spacingRight=4;overflow=hidden;rotatable=0;points=[[0,0.5],[1,0.5]];portConstraint=eastwest;" parent="20" vertex="1">
                    <mxGeometry y="138" width="160" height="52" as="geometry"/>
                </mxCell>
                <mxCell id="24" value="Cartao" style="swimlane;fontStyle=1;align=center;verticalAlign=top;childLayout=stackLayout;horizontal=1;startSize=26;horizontalStack=0;resizeParent=1;resizeParentMax=0;resizeLast=0;collapsible=1;marginBottom=0;fillColor=#3399FF;" parent="1" vertex="1">
                    <mxGeometry x="700" y="760" width="160" height="210" as="geometry"/>
                </mxCell>
                <mxCell id="25" value="+ id: number&#10;+ number: string&#10;+ validate: Date&#10;+ codSec: string&#10;+ status: boolean" style="text;strokeColor=none;fillColor=none;align=left;verticalAlign=top;spacingLeft=4;spacingRight=4;overflow=hidden;rotatable=0;points=[[0,0.5],[1,0.5]];portConstraint=eastwest;" parent="24" vertex="1">
                    <mxGeometry y="26" width="160" height="104" as="geometry"/>
                </mxCell>
                <mxCell id="26" value="" style="line;strokeWidth=1;fillColor=none;align=left;verticalAlign=middle;spacingTop=-1;spacingLeft=3;spacingRight=3;rotatable=0;labelPosition=right;points=[];portConstraint=eastwest;" parent="24" vertex="1">
                    <mxGeometry y="130" width="160" height="28" as="geometry"/>
                </mxCell>
                <mxCell id="27" value="- getLimit()&#10;- getIncrease()" style="text;strokeColor=none;fillColor=none;align=left;verticalAlign=top;spacingLeft=4;spacingRight=4;overflow=hidden;rotatable=0;points=[[0,0.5],[1,0.5]];portConstraint=eastwest;" parent="24" vertex="1">
                    <mxGeometry y="158" width="160" height="52" as="geometry"/>
                </mxCell>
                <mxCell id="29" style="edgeStyle=none;html=1;" parent="1" source="21" target="15" edge="1">
                    <mxGeometry relative="1" as="geometry"/>
                </mxCell>
                <mxCell id="30" style="edgeStyle=none;html=1;entryX=0.996;entryY=0.914;entryDx=0;entryDy=0;entryPerimeter=0;" parent="1" source="25" target="11" edge="1">
                    <mxGeometry relative="1" as="geometry"/>
                </mxCell>
                <mxCell id="31" style="edgeStyle=none;html=1;entryX=1.004;entryY=0.926;entryDx=0;entryDy=0;entryPerimeter=0;" parent="1" source="25" target="15" edge="1">
                    <mxGeometry relative="1" as="geometry"/>
                </mxCell>
                <mxCell id="37" style="edgeStyle=none;html=1;entryX=0;entryY=0.5;entryDx=0;entryDy=0;" parent="1" source="34" target="36" edge="1">
                    <mxGeometry relative="1" as="geometry"/>
                </mxCell>
                <mxCell id="39" style="edgeStyle=none;html=1;entryX=0;entryY=0.5;entryDx=0;entryDy=0;" parent="1" source="34" target="38" edge="1">
                    <mxGeometry relative="1" as="geometry"/>
                </mxCell>
                <mxCell id="41" style="edgeStyle=none;html=1;entryX=0;entryY=0.5;entryDx=0;entryDy=0;" parent="1" source="34" target="40" edge="1">
                    <mxGeometry relative="1" as="geometry"/>
                </mxCell>
                <mxCell id="34" value="Agencia" style="shape=umlActor;verticalLabelPosition=bottom;verticalAlign=top;html=1;fillColor=#3399FF;" parent="1" vertex="1">
                    <mxGeometry x="220" y="140" width="30" height="60" as="geometry"/>
                </mxCell>
                <mxCell id="35" value="Sistema" style="swimlane;fillColor=#3399FF;" parent="1" vertex="1">
                    <mxGeometry x="325" y="70" width="275" height="430" as="geometry"/>
                </mxCell>
                <mxCell id="36" value="&lt;span data-lucid-type=&quot;application/vnd.lucid.text&quot; data-lucid-content=&quot;{&amp;#34;t&amp;#34;:&amp;#34;Aprova cadastro cliente&amp;#34;,&amp;#34;m&amp;#34;:[{&amp;#34;s&amp;#34;:0,&amp;#34;n&amp;#34;:&amp;#34;a&amp;#34;,&amp;#34;v&amp;#34;:&amp;#34;center&amp;#34;},{&amp;#34;s&amp;#34;:0,&amp;#34;n&amp;#34;:&amp;#34;fc&amp;#34;,&amp;#34;v&amp;#34;:&amp;#34;Oblique&amp;#34;,&amp;#34;e&amp;#34;:23},{&amp;#34;s&amp;#34;:0,&amp;#34;n&amp;#34;:&amp;#34;fid&amp;#34;,&amp;#34;v&amp;#34;:8,&amp;#34;e&amp;#34;:23},{&amp;#34;s&amp;#34;:0,&amp;#34;n&amp;#34;:&amp;#34;i&amp;#34;,&amp;#34;v&amp;#34;:true,&amp;#34;e&amp;#34;:23},{&amp;#34;s&amp;#34;:0,&amp;#34;n&amp;#34;:&amp;#34;s&amp;#34;,&amp;#34;v&amp;#34;:17.77777777777778,&amp;#34;e&amp;#34;:23},{&amp;#34;s&amp;#34;:0,&amp;#34;n&amp;#34;:&amp;#34;c&amp;#34;,&amp;#34;v&amp;#34;:&amp;#34;#ffffffff&amp;#34;,&amp;#34;e&amp;#34;:23}]}&quot; style=&quot;color: rgb(0 , 0 , 0)&quot;&gt;&lt;span style=&quot;text-align: center ; font-style: italic ; font-size: 13.333333333333336px ; color: rgb(255 , 255 , 255)&quot;&gt;Gerenciar cadastro cliente&lt;/span&gt;&lt;/span&gt;" style="ellipse;shape=doubleEllipse;whiteSpace=wrap;html=1;fillColor=#3399FF;" parent="35" vertex="1">
                    <mxGeometry x="15" y="50" width="100" height="60" as="geometry"/>
                </mxCell>
                <mxCell id="38" value="&lt;span data-lucid-type=&quot;application/vnd.lucid.text&quot; data-lucid-content=&quot;{&amp;#34;t&amp;#34;:&amp;#34;Aprova cadastro cliente&amp;#34;,&amp;#34;m&amp;#34;:[{&amp;#34;s&amp;#34;:0,&amp;#34;n&amp;#34;:&amp;#34;a&amp;#34;,&amp;#34;v&amp;#34;:&amp;#34;center&amp;#34;},{&amp;#34;s&amp;#34;:0,&amp;#34;n&amp;#34;:&amp;#34;fc&amp;#34;,&amp;#34;v&amp;#34;:&amp;#34;Oblique&amp;#34;,&amp;#34;e&amp;#34;:23},{&amp;#34;s&amp;#34;:0,&amp;#34;n&amp;#34;:&amp;#34;fid&amp;#34;,&amp;#34;v&amp;#34;:8,&amp;#34;e&amp;#34;:23},{&amp;#34;s&amp;#34;:0,&amp;#34;n&amp;#34;:&amp;#34;i&amp;#34;,&amp;#34;v&amp;#34;:true,&amp;#34;e&amp;#34;:23},{&amp;#34;s&amp;#34;:0,&amp;#34;n&amp;#34;:&amp;#34;s&amp;#34;,&amp;#34;v&amp;#34;:17.77777777777778,&amp;#34;e&amp;#34;:23},{&amp;#34;s&amp;#34;:0,&amp;#34;n&amp;#34;:&amp;#34;c&amp;#34;,&amp;#34;v&amp;#34;:&amp;#34;#ffffffff&amp;#34;,&amp;#34;e&amp;#34;:23}]}&quot; style=&quot;color: rgb(0 , 0 , 0)&quot;&gt;&lt;span style=&quot;text-align: center ; font-style: italic ; font-size: 13.333333333333336px ; color: rgb(255 , 255 , 255)&quot;&gt;Gerenciar emprestimos dos clientes&lt;/span&gt;&lt;/span&gt;" style="ellipse;shape=doubleEllipse;whiteSpace=wrap;html=1;fillColor=#3399FF;" parent="35" vertex="1">
                    <mxGeometry x="15" y="130" width="100" height="60" as="geometry"/>
                </mxCell>
                <mxCell id="40" value="&lt;span data-lucid-type=&quot;application/vnd.lucid.text&quot; data-lucid-content=&quot;{&amp;#34;t&amp;#34;:&amp;#34;Aprova cadastro cliente&amp;#34;,&amp;#34;m&amp;#34;:[{&amp;#34;s&amp;#34;:0,&amp;#34;n&amp;#34;:&amp;#34;a&amp;#34;,&amp;#34;v&amp;#34;:&amp;#34;center&amp;#34;},{&amp;#34;s&amp;#34;:0,&amp;#34;n&amp;#34;:&amp;#34;fc&amp;#34;,&amp;#34;v&amp;#34;:&amp;#34;Oblique&amp;#34;,&amp;#34;e&amp;#34;:23},{&amp;#34;s&amp;#34;:0,&amp;#34;n&amp;#34;:&amp;#34;fid&amp;#34;,&amp;#34;v&amp;#34;:8,&amp;#34;e&amp;#34;:23},{&amp;#34;s&amp;#34;:0,&amp;#34;n&amp;#34;:&amp;#34;i&amp;#34;,&amp;#34;v&amp;#34;:true,&amp;#34;e&amp;#34;:23},{&amp;#34;s&amp;#34;:0,&amp;#34;n&amp;#34;:&amp;#34;s&amp;#34;,&amp;#34;v&amp;#34;:17.77777777777778,&amp;#34;e&amp;#34;:23},{&amp;#34;s&amp;#34;:0,&amp;#34;n&amp;#34;:&amp;#34;c&amp;#34;,&amp;#34;v&amp;#34;:&amp;#34;#ffffffff&amp;#34;,&amp;#34;e&amp;#34;:23}]}&quot; style=&quot;color: rgb(0 , 0 , 0)&quot;&gt;&lt;span style=&quot;text-align: center ; font-style: italic ; font-size: 13.333333333333336px ; color: rgb(255 , 255 , 255)&quot;&gt;Gerenciar catoes dos clientes&lt;/span&gt;&lt;/span&gt;" style="ellipse;shape=doubleEllipse;whiteSpace=wrap;html=1;fillColor=#3399FF;" parent="35" vertex="1">
                    <mxGeometry x="15" y="210" width="100" height="60" as="geometry"/>
                </mxCell>
                <mxCell id="42" value="&lt;span data-lucid-type=&quot;application/vnd.lucid.text&quot; data-lucid-content=&quot;{&amp;#34;t&amp;#34;:&amp;#34;Aprova cadastro cliente&amp;#34;,&amp;#34;m&amp;#34;:[{&amp;#34;s&amp;#34;:0,&amp;#34;n&amp;#34;:&amp;#34;a&amp;#34;,&amp;#34;v&amp;#34;:&amp;#34;center&amp;#34;},{&amp;#34;s&amp;#34;:0,&amp;#34;n&amp;#34;:&amp;#34;fc&amp;#34;,&amp;#34;v&amp;#34;:&amp;#34;Oblique&amp;#34;,&amp;#34;e&amp;#34;:23},{&amp;#34;s&amp;#34;:0,&amp;#34;n&amp;#34;:&amp;#34;fid&amp;#34;,&amp;#34;v&amp;#34;:8,&amp;#34;e&amp;#34;:23},{&amp;#34;s&amp;#34;:0,&amp;#34;n&amp;#34;:&amp;#34;i&amp;#34;,&amp;#34;v&amp;#34;:true,&amp;#34;e&amp;#34;:23},{&amp;#34;s&amp;#34;:0,&amp;#34;n&amp;#34;:&amp;#34;s&amp;#34;,&amp;#34;v&amp;#34;:17.77777777777778,&amp;#34;e&amp;#34;:23},{&amp;#34;s&amp;#34;:0,&amp;#34;n&amp;#34;:&amp;#34;c&amp;#34;,&amp;#34;v&amp;#34;:&amp;#34;#ffffffff&amp;#34;,&amp;#34;e&amp;#34;:23}]}&quot; style=&quot;color: rgb(0 , 0 , 0)&quot;&gt;&lt;span style=&quot;text-align: center ; font-style: italic ; font-size: 13.333333333333336px ; color: rgb(255 , 255 , 255)&quot;&gt;Realizar pagamentos&lt;/span&gt;&lt;/span&gt;" style="ellipse;shape=doubleEllipse;whiteSpace=wrap;html=1;fillColor=#3399FF;" parent="35" vertex="1">
                    <mxGeometry x="145" y="50" width="100" height="60" as="geometry"/>
                </mxCell>
                <mxCell id="44" value="&lt;span data-lucid-type=&quot;application/vnd.lucid.text&quot; data-lucid-content=&quot;{&amp;#34;t&amp;#34;:&amp;#34;Aprova cadastro cliente&amp;#34;,&amp;#34;m&amp;#34;:[{&amp;#34;s&amp;#34;:0,&amp;#34;n&amp;#34;:&amp;#34;a&amp;#34;,&amp;#34;v&amp;#34;:&amp;#34;center&amp;#34;},{&amp;#34;s&amp;#34;:0,&amp;#34;n&amp;#34;:&amp;#34;fc&amp;#34;,&amp;#34;v&amp;#34;:&amp;#34;Oblique&amp;#34;,&amp;#34;e&amp;#34;:23},{&amp;#34;s&amp;#34;:0,&amp;#34;n&amp;#34;:&amp;#34;fid&amp;#34;,&amp;#34;v&amp;#34;:8,&amp;#34;e&amp;#34;:23},{&amp;#34;s&amp;#34;:0,&amp;#34;n&amp;#34;:&amp;#34;i&amp;#34;,&amp;#34;v&amp;#34;:true,&amp;#34;e&amp;#34;:23},{&amp;#34;s&amp;#34;:0,&amp;#34;n&amp;#34;:&amp;#34;s&amp;#34;,&amp;#34;v&amp;#34;:17.77777777777778,&amp;#34;e&amp;#34;:23},{&amp;#34;s&amp;#34;:0,&amp;#34;n&amp;#34;:&amp;#34;c&amp;#34;,&amp;#34;v&amp;#34;:&amp;#34;#ffffffff&amp;#34;,&amp;#34;e&amp;#34;:23}]}&quot; style=&quot;color: rgb(0 , 0 , 0)&quot;&gt;&lt;span style=&quot;text-align: center ; font-style: italic ; font-size: 13.333333333333336px ; color: rgb(255 , 255 , 255)&quot;&gt;Realizar transferencias&lt;/span&gt;&lt;/span&gt;" style="ellipse;shape=doubleEllipse;whiteSpace=wrap;html=1;fillColor=#3399FF;" parent="35" vertex="1">
                    <mxGeometry x="145" y="130" width="100" height="60" as="geometry"/>
                </mxCell>
                <mxCell id="45" value="&lt;span data-lucid-type=&quot;application/vnd.lucid.text&quot; data-lucid-content=&quot;{&amp;#34;t&amp;#34;:&amp;#34;Aprova cadastro cliente&amp;#34;,&amp;#34;m&amp;#34;:[{&amp;#34;s&amp;#34;:0,&amp;#34;n&amp;#34;:&amp;#34;a&amp;#34;,&amp;#34;v&amp;#34;:&amp;#34;center&amp;#34;},{&amp;#34;s&amp;#34;:0,&amp;#34;n&amp;#34;:&amp;#34;fc&amp;#34;,&amp;#34;v&amp;#34;:&amp;#34;Oblique&amp;#34;,&amp;#34;e&amp;#34;:23},{&amp;#34;s&amp;#34;:0,&amp;#34;n&amp;#34;:&amp;#34;fid&amp;#34;,&amp;#34;v&amp;#34;:8,&amp;#34;e&amp;#34;:23},{&amp;#34;s&amp;#34;:0,&amp;#34;n&amp;#34;:&amp;#34;i&amp;#34;,&amp;#34;v&amp;#34;:true,&amp;#34;e&amp;#34;:23},{&amp;#34;s&amp;#34;:0,&amp;#34;n&amp;#34;:&amp;#34;s&amp;#34;,&amp;#34;v&amp;#34;:17.77777777777778,&amp;#34;e&amp;#34;:23},{&amp;#34;s&amp;#34;:0,&amp;#34;n&amp;#34;:&amp;#34;c&amp;#34;,&amp;#34;v&amp;#34;:&amp;#34;#ffffffff&amp;#34;,&amp;#34;e&amp;#34;:23}]}&quot; style=&quot;color: rgb(0 , 0 , 0)&quot;&gt;&lt;span style=&quot;text-align: center ; font-style: italic ; font-size: 13.333333333333336px ; color: rgb(255 , 255 , 255)&quot;&gt;Solicitar cartao de credito&lt;/span&gt;&lt;/span&gt;" style="ellipse;shape=doubleEllipse;whiteSpace=wrap;html=1;fillColor=#3399FF;" parent="35" vertex="1">
                    <mxGeometry x="145" y="210" width="100" height="60" as="geometry"/>
                </mxCell>
                <mxCell id="51" value="&lt;font color=&quot;#ffffff&quot;&gt;&lt;span style=&quot;font-size: 13.3333px&quot;&gt;&lt;i&gt;Tirar extratos bancarios&lt;/i&gt;&lt;/span&gt;&lt;/font&gt;" style="ellipse;shape=doubleEllipse;whiteSpace=wrap;html=1;fillColor=#3399FF;" parent="35" vertex="1">
                    <mxGeometry x="145" y="290" width="100" height="60" as="geometry"/>
                </mxCell>
                <mxCell id="60" value="&lt;font color=&quot;#ffffff&quot;&gt;&lt;span style=&quot;font-size: 13.3333px&quot;&gt;&lt;i&gt;Solicitar emprestimos&lt;/i&gt;&lt;/span&gt;&lt;/font&gt;" style="ellipse;shape=doubleEllipse;whiteSpace=wrap;html=1;fillColor=#3399FF;" parent="35" vertex="1">
                    <mxGeometry x="145" y="360" width="100" height="60" as="geometry"/>
                </mxCell>
                <mxCell id="48" style="edgeStyle=none;html=1;entryX=1;entryY=0.5;entryDx=0;entryDy=0;" parent="1" source="43" target="42" edge="1">
                    <mxGeometry relative="1" as="geometry"/>
                </mxCell>
                <mxCell id="49" style="edgeStyle=none;html=1;entryX=1;entryY=0.5;entryDx=0;entryDy=0;" parent="1" source="43" target="44" edge="1">
                    <mxGeometry relative="1" as="geometry"/>
                </mxCell>
                <mxCell id="50" style="edgeStyle=none;html=1;entryX=1;entryY=0.5;entryDx=0;entryDy=0;" parent="1" source="43" target="45" edge="1">
                    <mxGeometry relative="1" as="geometry"/>
                </mxCell>
                <mxCell id="61" style="edgeStyle=none;html=1;entryX=1;entryY=0.5;entryDx=0;entryDy=0;" parent="1" source="43" target="51" edge="1">
                    <mxGeometry relative="1" as="geometry"/>
                </mxCell>
                <mxCell id="62" style="edgeStyle=none;html=1;entryX=1;entryY=0.5;entryDx=0;entryDy=0;" parent="1" source="43" target="60" edge="1">
                    <mxGeometry relative="1" as="geometry"/>
                </mxCell>
                <mxCell id="43" value="Cliente" style="shape=umlActor;verticalLabelPosition=bottom;verticalAlign=top;html=1;fillColor=#3399FF;" parent="1" vertex="1">
                    <mxGeometry x="680" y="260" width="30" height="60" as="geometry"/>
                </mxCell>
            </root>
        </mxGraphModel>
    </diagram>
</mxfile>